<svg width="34" height="34" viewBox="0 0 34 34" fill="none" xmlns="http://www.w3.org/2000/svg">
<g clip-path="url(#clip0_1_128)">
<g clip-path="url(#clip1_1_128)">
<path fill-rule="evenodd" clip-rule="evenodd" d="M22.4501 18.1359C21.9956 18.9948 21.2175 19.5477 20.3745 19.7343C20.2472 19.7343 20.0521 19.7952 19.8569 19.7952C18.4322 19.7952 17.5898 18.7508 17.5898 17.2162C17.5898 15.2492 18.8207 14.3295 20.3745 13.8977C21.2175 13.714 22.1914 13.652 23.1628 13.652V14.3898C23.1628 15.8021 23.227 16.9067 22.4501 18.1359ZM23.1628 10.829C22.3204 10.8899 21.3465 10.9507 20.3745 11.0713C18.8849 11.2579 17.3953 11.5036 16.1657 12.0565C13.7677 12.978 12.1465 14.9426 12.1465 17.8282C12.1465 21.4544 14.6082 23.2951 17.7214 23.2951C18.757 23.2951 19.5994 23.171 20.3745 22.9891C21.609 22.6193 22.6434 21.9436 23.8743 20.7143C24.5876 21.6358 24.7839 22.0676 26.0135 23.0499C26.3377 23.171 26.662 23.171 26.9195 22.9891C27.6983 22.3736 29.0606 21.2678 29.7721 20.6535C30.0963 20.4083 30.0327 20.0392 29.8357 19.7343C29.1242 18.8737 28.4097 18.1359 28.4097 16.4779V10.9502C28.4097 8.61691 28.6067 6.46679 26.7917 4.87131C25.3021 3.58356 22.9683 3.09094 21.1532 3.09094H20.3745C17.0723 3.27234 13.5744 4.62442 12.7938 8.49404C12.6641 8.98666 13.0544 9.16979 13.3138 9.23007L16.9426 9.66067C17.3311 9.59866 17.5262 9.29092 17.5898 8.98666C17.9128 7.63516 19.08 6.95941 20.3745 6.83481H20.6357C21.4138 6.83481 22.2568 7.14254 22.7089 7.75802C23.227 8.49404 23.1628 9.47753 23.1628 10.3382V10.829Z" fill="#343B45"/>
<path fill-rule="evenodd" clip-rule="evenodd" d="M36.2692 23.9219V23.9207C36.2558 23.6309 36.1915 23.4101 36.0643 23.2264L36.0502 23.209L36.0349 23.1905C35.9052 23.0566 35.7811 23.0056 35.6465 22.95C35.2439 22.8028 34.6585 22.7239 33.9544 22.7228C33.4485 22.7228 32.8906 22.7686 32.3296 22.8851L32.3278 22.8485L31.7631 23.027L31.7527 23.0317L31.4334 23.1302V23.143C31.0683 23.2865 30.7225 23.4705 30.4032 23.6912C30.2062 23.8303 30.0441 24.0157 30.035 24.2986C30.0349 24.3814 30.0541 24.4633 30.0911 24.5384C30.1281 24.6135 30.182 24.68 30.2491 24.7332C30.3224 24.7886 30.4071 24.8292 30.4977 24.8523C30.5883 24.8754 30.6829 24.8807 30.7758 24.8677L30.8033 24.8665L30.8241 24.863C31.1006 24.8074 31.5031 24.7697 31.9742 24.7077C32.3779 24.6648 32.8062 24.6341 33.1775 24.6341C33.4399 24.6324 33.6761 24.6503 33.8382 24.6828C33.9079 24.6948 33.9755 24.7163 34.0388 24.7466C34.0515 24.797 34.0567 24.8489 34.0541 24.9007C34.0578 25.1951 33.9269 25.7416 33.7452 26.2754C33.569 26.8086 33.3549 27.3435 33.2136 27.6988C33.1765 27.7845 33.1572 27.8762 33.1567 27.9688C33.153 28.1114 33.2154 28.2847 33.3463 28.3994C33.4748 28.5136 33.64 28.5594 33.7782 28.5594H33.7849C33.9923 28.5576 34.1685 28.4794 34.3202 28.3664C35.7535 27.1459 36.2521 25.1951 36.2729 24.0969L36.2692 23.9219ZM32.0207 25.6141C31.8696 25.6136 31.7203 25.6453 31.5839 25.7069C31.4267 25.766 31.2658 25.8349 31.1141 25.8958L30.8914 25.9839L30.6014 26.094V26.0969C27.451 27.3081 24.1414 28.0181 21.0784 28.0801C20.9659 28.0836 20.8521 28.0836 20.7432 28.0836C15.9263 28.0865 11.9971 25.9694 8.03303 23.883C7.90436 23.8165 7.76057 23.7805 7.61399 23.7781C7.43597 23.7781 7.25306 23.8419 7.1197 23.9595C7.05301 24.0197 6.99996 24.0921 6.96378 24.1723C6.9276 24.2525 6.90905 24.3388 6.90926 24.4261C6.90742 24.6532 7.03711 24.863 7.21819 24.9987C10.9388 28.0604 15.0167 30.9042 20.5022 30.9077C20.6092 30.9077 20.7181 30.9042 20.8264 30.9031C24.3158 30.8289 28.2609 29.7115 31.3239 27.8888L31.3423 27.8773C31.7531 27.6449 32.1472 27.3869 32.5217 27.1047C32.7566 26.9396 32.9193 26.6811 32.9193 26.4127C32.9089 25.9364 32.4813 25.6141 32.0207 25.6141Z" fill="#FF9A00"/>
</g>
</g>
<defs>
<clipPath id="clip0_1_128">
<rect width="34" height="34" fill="white"/>
</clipPath>
<clipPath id="clip1_1_128">
<rect width="29.3636" height="27.8182" fill="white" transform="translate(6.90924 3.09094)"/>
</clipPath>
</defs>
</svg>
